<svg xmlns="http://www.w3.org/2000/svg" version="1.0" viewBox="55.17 22 453.63 521.74">
                <path fill="#FFFFFF"
                    d="M236.5 25.7c-3.2 6.1-15.2 18-24 23.9C196 60.5 176 67.7 150 72.1c-3 .5-17.3.9-31.7 1-14.9 0-26.5.4-26.8 1-.4.5 8.4.9 21.9.9 22.6 0 22.6 0 22.6 47.8 0 26.4.3 54 .6 61.4.7 13.5.7 13.5 7.2 15.2 35.8 9.5 58.5 39.6 58.6 77.6 0 14.1-2.5 25.3-8.8 38.4-8.3 17.5-19.6 29.1-36.1 37.1-11 5.3-18.4 7.4-29.5 8.2-14.5 1-31.1-4.8-37-12.8-5.3-7.4-5.2-11.9.5-14.6 3.2-1.5 3.8-1.5 8.7.1 18.1 6 38.5.9 52.3-12.9 10.4-10.4 15.7-23.4 15.7-38.4 0-25.6-17.6-47.3-42.8-52.6-8.6-1.8-11.2-1.8-19.7 0-19.3 4.1-35.1 17-44.1 35.9-5.5 11.5-6.9 18.4-6.3 31.1.5 12.1 2.2 18.2 8.5 28.9 8 13.8 27.3 28.9 43.7 34.3 6.9 2.2 10.2 2.7 24.1 3.1 44.2 1.2 76.9-13.2 95.7-42.3 5.2-8.1 7.9-14.3 10.7-24 2-6.8 2-10.2 2-140.7 0-73.6-.3-133.8-.8-133.8-.4 0-1.6 1.7-2.7 3.7M276 209c0 .6 2.9 1 6.8 1 7.8 0 17.1 2.2 21.9 5.1 7.4 4.6 8.5 13.2 2.9 24.4-2.2 4.4-11.3 16.7-24.7 33.5-32.4 40.7-40.8 51.4-41 52.4-.1.4 3.2 5.4 7.3 11 4.2 5.5 25 33.9 46.3 63.1 78.7 107.6 81.4 111.1 89.4 118.8 33.5 32 68 33.9 97.2 5.2 13.9-13.7 25.3-35.6 26.4-50.9.5-6.1.5-6.1-1 .4-3.7 16.1-7.8 23-15.8 26.9-9.2 4.5-18.8 1.3-29.6-9.7-16.5-16.8-63-75.1-140.2-175.7-29.6-38.6-33.9-44.3-33.9-45 0-.3 3.6-5.1 8-10.5 16.6-20.5 44.8-37.7 76.2-46.6 7-1.9 11-2.4 20.7-2.4 7.4 0 12.1-.4 12.1-1 0-.7-22.2-1-64.5-1s-64.5.3-64.5 1">
                </path>
                <path fill="#FFFFFF"
                    d="M235.1 333.3c-20 26-54.9 42.7-89.3 42.7-8.8 0-8.8 0-9 70.2-.3 70.3-.3 70.3-23.5 70.6-14.4.1-23.3.6-23.3 1.2 0 .7 34.6 1 98 1 64.7 0 98-.3 98-1 0-.6-8.3-1-23-1-23 0-23 0-23.2-94.7-.3-94.6-.3-94.6-4.7-89">
                </path>
            </svg>